<?xml version="1.0" encoding="UTF-8" standalone="no"?>
<!DOCTYPE svg PUBLIC "-//W3C//DTD SVG 1.1//EN" "http://www.w3.org/Graphics/SVG/1.1/DTD/svg11.dtd">
<!-- Created with Vectornator (http://vectornator.io/) -->
<svg height="100%" stroke-miterlimit="10" style="fill-rule:nonzero;clip-rule:evenodd;stroke-linecap:round;stroke-linejoin:round;" version="1.1" viewBox="0 0 128 128" width="100%" xml:space="preserve" xmlns="http://www.w3.org/2000/svg" xmlns:xlink="http://www.w3.org/1999/xlink">
<defs/>
<clipPath id="ArtboardFrame">
<rect height="128" width="128" x="0" y="0"/>
</clipPath>
<g clip-path="url(#ArtboardFrame)" id="Layer-1">
<g opacity="1">
<path d="M84.3133 38.3131C83.7955 37.4287 83.238 36.5731 82.6406 35.7355C82.0432 34.9003 81.4458 34.0875 80.8085 33.2883C80.1713 32.5071 79.4943 31.7507 78.857 31.0167C78.18 30.2807 77.4631 29.5759 76.7462 28.8915C76.0293 28.2207 75.2726 27.5679 74.5557 26.9467C73.799 26.3275 73.0423 25.7331 72.2458 25.1703C71.4492 24.6119 70.6527 24.0807 69.8562 23.5763C69.4181 23.3039 68.98 23.0407 68.5419 22.7883C68.1834 22.5747 67.7852 22.3675 67.3869 22.1627C66.6302 21.7459 65.7938 21.3387 64.9973 20.9739C64.2008 20.6071 63.3644 20.2715 62.5679 19.9699C61.7713 19.6615 60.935 19.3911 60.1384 19.1435C59.3419 18.9003 58.5454 18.6819 57.7488 18.4951C56.9523 18.3039 56.1558 18.1463 55.3592 18.0067C54.6025 17.8739 53.806 17.7635 53.0493 17.6759C52.2527 17.5879 51.496 17.5315 50.7393 17.4911C49.9826 17.4507 49.2259 17.4327 48.509 17.4347C47.7523 17.4415 47.0354 17.4643 46.3185 17.5091C45.5618 17.5543 44.8848 17.6171 44.1679 17.7007C43.451 17.7839 42.774 17.8827 42.0571 17.9999C41.38 18.1171 40.703 18.2499 40.0657 18.4031C39.3887 18.5559 38.7116 18.7179 38.0744 18.9003C37.4372 19.0807 36.7999 19.2743 36.1627 19.4835C35.5255 19.6927 34.9281 19.9111 34.3307 20.1543C33.7333 20.3887 33.1359 20.6315 32.5385 20.8927C31.9411 21.1583 31.3835 21.4263 30.8259 21.7123C30.2285 21.9939 29.671 22.2887 29.1532 22.5971C28.5956 22.8987 28.0779 23.2139 27.5203 23.5379C27.0026 23.8623 26.4848 24.1979 26.0069 24.5443C25.4891 24.8887 25.0112 25.2379 24.4935 25.6027C24.0155 25.9603 23.5376 26.3363 23.0597 26.7171C22.6216 27.0907 22.1437 27.4799 21.7056 27.8719C21.2675 28.2727 20.8294 28.6687 20.3913 29.0851C19.993 29.4951 19.5549 29.9115 19.1567 30.3371C18.7584 30.7603 18.3601 31.1903 17.9619 31.6359C17.5636 32.0727 17.1653 32.5183 16.8069 32.9711C16.4485 33.4235 16.09 33.8827 15.7316 34.3531C15.3731 34.8147 15.0147 35.2855 14.6961 35.7695C14.3775 36.2443 14.019 36.7283 13.7004 37.2191C13.4216 37.7123 13.103 38.2075 12.7844 38.7139C12.6251 38.9819 12.4658 39.2567 12.3065 39.5335C12.187 39.7607 12.0675 39.9995 11.948 40.2359C11.6692 40.7243 11.3905 41.2331 11.1515 41.7467C10.8727 42.2439 10.6337 42.7551 10.4346 43.2615C10.1957 43.7635 9.95669 44.2703 9.75756 44.7835C9.55843 45.2879 9.35929 45.7987 9.16016 46.3055C8.96103 46.8119 8.76189 47.3231 8.60258 47.8319C8.44328 48.3407 8.28397 48.8471 8.12466 49.3535C7.96536 49.8647 7.80605 50.3755 7.68657 50.8799C7.52726 51.3955 7.40778 51.9067 7.2883 52.4107C7.16882 52.9219 7.04934 53.4331 6.96969 53.9371C6.85021 54.4527 6.73073 54.9595 6.65107 55.4659C6.57142 55.9767 6.49176 56.4879 6.41211 56.9967C6.37228 57.5079 6.29263 58.0187 6.2528 58.5275C6.17315 59.0407 6.13332 59.5519 6.0935 60.0607C6.05367 60.5671 6.01384 61.0807 6.01384 61.5895C5.97402 62.1027 5.97402 62.6091 5.97402 63.1247C5.93419 63.6291 5.93419 64.1399 5.93419 64.6467C5.97402 65.1599 5.97402 65.6711 6.01384 66.1843C6.01384 66.6887 6.05367 67.2063 6.0935 67.7175C6.13332 68.2239 6.17315 68.7371 6.21298 69.2459C6.2528 69.7615 6.33246 70.2659 6.41211 70.7747C6.45194 71.2923 6.57142 71.7991 6.61125 72.3123C6.73073 72.8255 6.81038 73.3411 6.89003 73.8455C7.00951 74.3611 7.12899 74.8675 7.24847 75.3783C7.36795 75.8939 7.48743 76.4051 7.60691 76.9139C7.76622 77.4271 7.8857 77.9403 8.04501 78.4471C8.20432 78.9627 8.36362 79.4759 8.52293 79.9867C8.72206 80.5003 8.88137 81.0091 9.08051 81.5155C9.27964 82.0355 9.47877 82.5467 9.67791 83.0575C9.91687 83.5687 10.116 84.0799 10.355 84.5887C10.5939 85.1039 10.8329 85.6151 11.0718 86.1171C11.3506 86.6395 11.5896 87.1439 11.8684 87.6527C12.0277 87.9339 12.187 88.2107 12.3463 88.4831C12.4658 88.7175 12.5853 88.9427 12.7047 89.1631C13.0234 89.6695 13.342 90.1627 13.6208 90.6535C13.9394 91.1399 14.258 91.6215 14.6164 92.0899C14.935 92.5695 15.2537 93.0419 15.6121 93.5035C15.9705 93.9675 16.329 94.4223 16.6874 94.8703C17.0459 95.3203 17.4441 95.7683 17.8026 96.2031C18.2008 96.6419 18.5991 97.0787 18.9974 97.4995C19.3956 97.9251 19.8337 98.3415 20.232 98.7447C20.6701 99.1611 21.1082 99.5639 21.5463 99.9559C21.9844 100.354 22.4225 100.742 22.9004 101.12C23.3385 101.502 23.8164 101.87 24.2943 102.234C24.7723 102.601 25.29 102.952 25.7679 103.297C26.2857 103.644 26.8034 103.984 27.3212 104.308C27.8389 104.636 28.3567 104.954 28.9142 105.26C29.432 105.568 29.9896 105.87 30.5471 106.152C31.1047 106.437 31.7021 106.716 32.2597 106.976C32.8571 107.243 33.4545 107.498 34.0519 107.734C34.6493 107.973 35.2467 108.205 35.8839 108.412C36.5212 108.628 37.1584 108.828 37.7956 109.013C38.4328 109.198 39.0701 109.368 39.7471 109.522C40.4242 109.682 41.1012 109.819 41.7783 109.943C42.4553 110.062 43.1722 110.172 43.8493 110.258C44.5662 110.343 45.283 110.413 45.9999 110.465C46.7168 110.514 47.4735 110.546 48.1904 110.557C48.9471 110.568 49.7038 110.553 50.4605 110.519C53.6467 110.373 55.1999 107.178 53.7662 103.459C52.3722 99.8275 48.7082 97.3419 45.761 97.8059C45.2432 97.8867 44.7255 97.9567 44.1679 98.0083C43.6501 98.0535 43.1324 98.0919 42.6147 98.1119C42.0969 98.1299 41.619 98.1347 41.1012 98.1279C40.5835 98.1119 40.1056 98.0963 39.5878 98.0603C39.1099 98.0195 38.5921 97.9703 38.1142 97.9071C37.6363 97.8419 37.1584 97.7631 36.6406 97.6775C36.1627 97.5875 35.7246 97.4883 35.2467 97.3779C34.7688 97.2679 34.3307 97.1439 33.8528 97.0087C33.4147 96.8759 32.9367 96.7275 32.4987 96.5743C32.0606 96.4211 31.6225 96.2503 31.1844 96.0791C30.7861 95.9011 30.348 95.7167 29.9099 95.5207C29.5116 95.3315 29.1134 95.1247 28.6753 94.9107C28.277 94.6967 27.8787 94.4763 27.4805 94.2511C27.0822 94.0191 26.7238 93.7807 26.3255 93.5327C25.9671 93.2875 25.5688 93.0331 25.2104 92.7695C24.8519 92.5107 24.4935 92.2383 24.135 91.9639C23.7766 91.6823 23.4181 91.3987 23.0995 91.1127C22.7411 90.8179 22.4225 90.5183 22.1039 90.2191C21.7852 89.9083 21.4666 89.5975 21.148 89.2779C20.8294 88.9583 20.5108 88.6339 20.232 88.3007C19.9134 87.9699 19.6346 87.6299 19.3558 87.2879C19.077 86.9411 18.7982 86.5923 18.5195 86.2251C18.2407 85.8763 17.9619 85.5091 17.7229 85.1399C17.4441 84.7663 17.2052 84.3927 16.9662 84.0031C16.8467 83.8319 16.7272 83.6563 16.6078 83.4787C16.4883 83.2647 16.3688 83.0507 16.2493 82.8391C16.0104 82.4431 15.7714 82.0447 15.5723 81.6507C15.3333 81.2455 15.1342 80.8515 14.935 80.4527C14.7359 80.0475 14.5766 79.6515 14.3775 79.2531C14.2182 78.8455 14.019 78.4471 13.8597 78.0395C13.7004 77.6411 13.5411 77.2315 13.4216 76.8283C13.2623 76.4255 13.103 76.0223 12.9835 75.6127C12.864 75.2095 12.7446 74.7975 12.6251 74.3879C12.5056 73.9851 12.3861 73.5775 12.3065 73.1723C12.187 72.7623 12.1073 72.3507 12.0277 71.9431C11.9082 71.5287 11.8286 71.1191 11.7489 70.7115C11.7091 70.2975 11.6294 69.8875 11.5896 69.4755C11.5099 69.0659 11.4701 68.6515 11.4303 68.2375C11.3905 67.8299 11.3108 67.4135 11.3108 67.0039C11.271 66.5919 11.2312 66.1819 11.2312 65.7655C11.1913 65.3559 11.1913 64.9347 11.1913 64.5227C11.1913 64.1155 11.1913 63.6967 11.1913 63.2915C11.1913 62.8747 11.2312 62.4583 11.2312 62.0443C11.271 61.6367 11.271 61.2223 11.3108 60.8103C11.3506 60.3983 11.3905 59.9863 11.4303 59.5743C11.4701 59.1671 11.5498 58.7527 11.5896 58.3431C11.6692 57.9355 11.7091 57.5191 11.7887 57.1115C11.8684 56.6995 11.948 56.2899 12.0675 55.8847C12.1472 55.4771 12.2268 55.0651 12.3463 54.6667C12.426 54.2503 12.5454 53.8427 12.6649 53.4463C12.7844 53.0343 12.9039 52.6315 13.0234 52.2287C13.1827 51.8211 13.3021 51.4159 13.4615 51.0219C13.6208 50.6167 13.7801 50.2159 13.9394 49.8219C14.0987 49.4143 14.258 49.0183 14.4571 48.6219C14.6164 48.2235 14.8156 47.8319 15.0147 47.4287C15.174 47.0391 15.413 46.6431 15.6121 46.2515C15.8112 45.8595 16.0502 45.4655 16.2892 45.0783C16.3688 44.8959 16.4883 44.7251 16.6078 44.5403C16.7272 44.3355 16.8866 44.1263 17.006 43.9143C17.245 43.5227 17.5238 43.1399 17.7627 42.7687C18.0415 42.3927 18.3203 42.0279 18.5991 41.6743C18.8779 41.3075 19.1567 40.9563 19.4355 40.6143C19.7143 40.2563 20.0329 39.9163 20.3117 39.5807C20.6303 39.2519 20.9489 38.9235 21.2675 38.6103C21.5861 38.2887 21.9047 37.9755 22.2233 37.6671C22.542 37.3655 22.9004 37.0639 23.219 36.7735C23.5775 36.4783 23.9359 36.1971 24.2943 35.9203C24.6528 35.6431 25.0112 35.3755 25.3697 35.1143C25.7281 34.8555 26.1264 34.6011 26.4848 34.3579C26.8831 34.1147 27.2813 33.8715 27.6398 33.6531C28.0779 33.4143 28.4761 33.1983 28.8744 32.9911C29.2727 32.7819 29.7108 32.5791 30.109 32.3923C30.5471 32.1967 30.9454 32.0163 31.3835 31.8431C31.8216 31.6743 32.2597 31.5075 32.6978 31.3547C33.1757 31.2039 33.6138 31.0643 34.0519 30.9335C34.5298 30.8031 34.9679 30.6791 35.4458 30.5755C35.9238 30.4655 36.4017 30.3707 36.8796 30.2851C37.3575 30.2043 37.8354 30.1323 38.3134 30.0715C38.8311 30.0107 39.309 29.9679 39.787 29.9363C40.3047 29.8979 40.8224 29.8779 41.3004 29.8731C41.8181 29.8687 42.3359 29.8779 42.8536 29.9047C43.3714 29.9251 43.8891 29.9679 44.4069 30.0219C44.9246 30.0735 45.4424 30.1455 45.9601 30.2291C46.4779 30.3211 47.0354 30.4203 47.5532 30.5395C48.0709 30.6635 48.6285 30.8007 49.1462 30.9515C49.7038 31.1135 50.2216 31.2871 50.7791 31.4739C51.2969 31.6675 51.8146 31.8791 52.3722 32.1063C52.89 32.3363 53.4475 32.5927 53.9653 32.8631C54.5229 33.1307 55.0406 33.4259 55.5982 33.7363C56.1159 34.0515 56.6337 34.3827 57.1514 34.7403C57.3904 34.8979 57.6293 35.0647 57.8683 35.2379C58.1471 35.4407 58.4657 35.6567 58.7445 35.8683C59.2622 36.2803 59.78 36.6967 60.2579 37.1267C60.7757 37.5703 61.2536 38.0207 61.7315 38.4823C62.2094 38.9595 62.6475 39.4435 63.0856 39.9387C63.5237 40.4499 63.9618 40.9655 64.3999 41.5011C64.7982 42.0303 65.1964 42.5819 65.5947 43.1399C65.993 43.7007 66.3514 44.2723 66.7099 44.8647C67.0683 45.4543 67.3869 46.0555 67.7454 46.6699C68.064 47.2847 68.3428 47.9127 68.6215 48.5455C68.9402 49.1891 69.1791 49.8355 69.4579 50.4927C69.6969 51.1567 69.9358 51.8211 70.135 52.4943C70.3739 53.1739 70.5731 53.8563 70.7324 54.5475C70.9315 55.2431 71.0908 55.9431 71.2103 56.6431C71.3298 57.3503 71.4492 58.0571 71.5687 58.7639C71.6484 59.4823 71.728 60.1979 71.8077 60.9207C71.8475 61.6387 71.8873 62.3615 71.8873 63.0887C71.9272 63.8023 71.9272 64.5295 71.8873 65.2455C71.8873 65.9683 71.8077 66.6887 71.7679 67.4111C71.6882 68.1271 71.6085 68.8431 71.5289 69.5567C71.4094 70.2615 71.2899 70.9703 71.1306 71.6775C71.0111 72.3751 70.8518 73.0711 70.6527 73.7667C70.4934 74.4463 70.2544 75.1287 70.0553 75.8019C69.8163 76.4727 69.5774 77.1391 69.3384 77.7919C69.0995 78.4471 68.8207 79.0887 68.5419 79.7123C68.2233 80.3539 67.9047 80.9731 67.586 81.5719C65.8337 84.8675 67.6657 89.3119 71.8475 91.7071C76.3081 94.2399 81.8839 93.6071 84.1142 90.0367C84.6717 89.1519 85.1497 88.2559 85.6674 87.3439C86.1453 86.4255 86.5834 85.4867 87.0215 84.5391C87.4596 83.5731 87.8579 82.5983 88.2163 81.6167C88.6146 80.6195 88.9332 79.6131 89.2518 78.5935C89.5704 77.5691 89.8492 76.5403 90.0882 75.5023C90.3271 74.4487 90.5263 73.3927 90.7254 72.3235C90.8847 71.2631 91.044 70.1959 91.1237 69.1243C91.2431 68.0415 91.3228 66.9587 91.3626 65.8667C91.4025 64.7931 91.4025 63.7099 91.3626 62.6227C91.3626 61.5375 91.283 60.4547 91.2033 59.3719C91.0838 58.3003 90.9644 57.2195 90.8051 56.1479C90.6059 55.0855 90.4068 54.0251 90.2077 52.9783C89.9687 51.9199 89.6899 50.8823 89.4111 49.8671C89.0925 48.8335 88.7739 47.8203 88.3756 46.8163C88.0172 45.8167 87.6189 44.8331 87.2206 43.8739C86.7826 42.9103 86.3445 41.9627 85.8665 41.0307C85.3488 40.1007 84.8709 39.1959 84.3133 38.3131" fill="#ffffff" fill-rule="nonzero" opacity="1" stroke="none"/>
<path d="M78.4986 109.277L35.5653 61.3203C34.2909 59.8907 32.2995 59.9675 31.0649 61.4307C29.9099 62.8623 29.9099 65.1363 31.0649 66.5635L69.7765 113.706C56.8726 118.672 43.8891 117.342 33.2952 112.373C23.6571 107.859 15.6918 100.223 10.4744 90.6455C5.81471 82.1695 3.70389 72.8447 3.70389 63.9971C3.70389 55.1587 5.81471 45.8291 10.4744 37.3531C15.6918 27.7763 23.6571 20.1375 33.2952 15.6259C45.1237 10.0879 59.9393 9.0611 74.1575 16.2471C91.8804 25.1983 102.434 43.3031 102.474 63.9971C102.434 82.7659 93.6726 99.5699 78.4986 109.277M67.586 0.236301C53.4475-1.0449 40.2649 2.9783 29.4718 10.0111C11.7489 21.3195 0 41.2207 0 63.8731C0 76.5931 3.70389 88.4439 10.116 98.3923C22.4623 118.028 47.593 132.772 75.193 126.563C89.8492 123.821 102.713 116.027 111.993 105.04C132.384 82.4735 133.3 49.6115 114.701 26.1351C103.868 11.3755 86.902 1.4607 67.586 0.236301" fill="#ffffff" fill-rule="nonzero" opacity="1" stroke="none"/>
<path d="M63.8423 57.0567C63.6034 55.9243 63.3246 54.8055 62.9263 53.7159C62.5679 52.6307 62.1696 51.5683 61.6917 50.5395C61.2138 49.5083 60.6562 48.5179 60.0986 47.5563C59.5012 46.6087 58.864 45.6947 58.1869 44.8279C57.5099 43.9655 56.793 43.1463 56.0363 42.3763C55.2796 41.6151 54.483 40.9059 53.6068 40.2443C52.7705 39.5891 51.9341 39.0039 51.0579 38.4747C50.2216 37.9659 49.3454 37.5067 48.4294 37.1151C47.593 36.7255 46.677 36.3967 45.8008 36.1267C44.9246 35.8611 44.0484 35.6515 43.1722 35.4871C42.3359 35.3319 41.4597 35.2327 40.5835 35.1743C39.7471 35.1247 38.9108 35.1247 38.0744 35.1655C37.238 35.2059 36.4415 35.2915 35.645 35.4243C34.8484 35.5503 34.0519 35.7215 33.2952 35.9331C32.4987 36.1403 31.7818 36.3855 31.0251 36.6671C30.3082 36.9483 29.5913 37.2659 28.8744 37.6191C28.1974 37.9659 27.5203 38.3419 26.8831 38.7583C26.206 39.1659 25.5688 39.6095 24.9714 40.0799C24.3342 40.5483 23.7766 41.0479 23.1792 41.5723C22.6216 42.0927 22.064 42.6419 21.5463 43.2227C21.0285 43.7899 20.5108 44.3911 20.0329 45.0191C19.5549 45.6407 19.1169 46.2843 18.6788 46.9599C18.2407 47.6263 17.8424 48.3015 17.484 48.9903C17.1255 49.6747 16.7671 50.3659 16.4883 51.0707C16.1697 51.7663 15.8909 52.4687 15.6121 53.1755C15.3731 53.8847 15.1342 54.5963 14.935 55.3143C14.7757 56.0303 14.5766 56.7483 14.4173 57.4755C14.2978 58.1891 14.1783 58.9163 14.0589 59.6415C13.9792 60.3639 13.8995 61.0911 13.8597 61.8183C13.8199 62.5411 13.7801 63.2703 13.7801 63.9955C13.7801 64.7271 13.8199 65.4563 13.8597 66.1835C13.8995 66.9063 13.9792 67.6355 14.0589 68.3539C14.1783 69.0811 14.2978 69.8083 14.4173 70.5263C14.5766 71.2467 14.7757 71.9695 14.935 72.6831C15.1342 73.3991 15.3731 74.1127 15.6121 74.8195C15.8909 75.5287 16.1697 76.2335 16.4883 76.9311C16.7671 77.6315 17.1255 78.3247 17.484 79.0067C17.8424 79.6911 18.2407 80.3735 18.6788 81.0375C19.1169 81.7131 19.5549 82.3591 20.0329 82.9735C20.5108 83.6019 21.0285 84.2027 21.5463 84.7723C22.064 85.3487 22.6216 85.9027 23.1792 86.4203C23.7766 86.9515 24.3342 87.4447 24.9714 87.9151C25.5688 88.3859 26.206 88.8271 26.8831 89.2343C27.5203 89.6511 28.1974 90.0291 28.8744 90.3783C29.5913 90.7315 30.3082 91.0467 31.0251 91.3259C31.7818 91.6075 32.4987 91.8571 33.2952 92.0599C34.0519 92.2759 34.8484 92.4471 35.645 92.5755C36.4415 92.7039 37.238 92.7891 38.0744 92.8299C38.9108 92.8747 39.7471 92.8679 40.5835 92.8163C42.8536 92.6767 44.1679 90.4095 43.4908 87.7847C42.8138 85.1935 40.4242 83.3787 38.2735 83.6963C37.716 83.7795 37.1584 83.8291 36.6008 83.8495C36.0432 83.8719 35.4857 83.8563 34.9281 83.8111C34.3705 83.7707 33.8129 83.6963 33.2952 83.5907C32.7376 83.4915 32.2199 83.3607 31.7021 83.2031C31.1844 83.0479 30.6666 82.8611 30.1489 82.6539C29.671 82.4447 29.193 82.2127 28.7151 81.9559C28.2372 81.6995 27.7593 81.4159 27.3212 81.1119C26.8831 80.8103 26.445 80.4791 26.0069 80.1327C25.6086 79.7903 25.2104 79.4167 24.8121 79.0203C24.4138 78.6355 24.0554 78.2255 23.6571 77.7911C23.2987 77.3611 22.9801 76.9043 22.6216 76.4271C22.303 75.9563 21.9844 75.4703 21.7056 74.9771C21.4268 74.4931 21.1878 73.9931 20.9489 73.4891C20.7099 72.9891 20.471 72.4803 20.2718 71.9671C20.0727 71.4539 19.9134 70.9359 19.7541 70.4091C19.5948 69.8871 19.4753 69.3647 19.3558 68.8311C19.2363 68.2999 19.1567 67.7683 19.077 67.2327C18.9974 66.6967 18.9177 66.1587 18.9177 65.6183C18.8779 65.0827 18.8381 64.5423 18.8381 63.9975C18.8381 63.4595 18.8779 62.9235 18.9177 62.3835C18.9177 61.8455 18.9974 61.3051 19.077 60.7715C19.1567 60.2355 19.2363 59.6999 19.3558 59.1731C19.4753 58.6419 19.5948 58.1151 19.7541 57.5927C19.9134 57.0703 20.0727 56.5503 20.2718 56.0371C20.471 55.5239 20.7099 55.0127 20.9489 54.5127C21.1878 54.0087 21.4268 53.5087 21.7056 53.0227C21.9844 52.5339 22.303 52.0499 22.6216 51.5751C22.9801 51.0975 23.2987 50.6451 23.6571 50.2083C24.0554 49.7783 24.4138 49.3663 24.8121 48.9771C25.2104 48.5831 25.6086 48.2183 26.0069 47.8671C26.445 47.5183 26.8831 47.1939 27.3212 46.8923C27.7593 46.5859 28.2372 46.3047 28.7151 46.0503C29.193 45.7915 29.671 45.5551 30.1489 45.3479C30.6666 45.1339 31.1844 44.9539 31.7021 44.7939C32.2199 44.6411 32.7376 44.5103 33.2952 44.4115C33.8129 44.3079 34.3705 44.2335 34.9281 44.1883C35.4857 44.1503 36.0432 44.1343 36.6008 44.1523C37.1584 44.1703 37.716 44.2179 38.2735 44.3031C38.8709 44.3911 39.4285 44.5103 39.9861 44.6611C40.5835 44.8167 41.1411 45.0035 41.6986 45.2307C42.296 45.4603 42.8536 45.7283 43.4112 46.0255C43.9688 46.3363 44.5263 46.6807 45.0839 47.0635C45.6017 47.4507 46.1592 47.8759 46.677 48.3511C47.1947 48.8239 47.7125 49.3235 48.1904 49.8551C48.6285 50.3887 49.1064 50.9491 49.5047 51.5323C49.903 52.1199 50.3012 52.7323 50.6198 53.3603C50.9783 53.9951 51.2969 54.6523 51.5757 55.3211C51.8545 55.9943 52.1333 56.6875 52.3324 57.3899C52.5315 58.0991 52.7307 58.8175 52.89 59.5511C53.0094 60.2763 53.1289 61.0167 53.2086 61.7599C53.2882 62.5051 53.3281 63.2547 53.3281 63.9999C53.3281 64.7539 53.2882 65.5035 53.2086 66.2467C53.1289 66.9939 53.0094 67.7303 52.89 68.4619C52.7307 69.1911 52.5315 69.9115 52.3324 70.6187C51.5359 73.2099 53.0891 76.1411 55.877 77.2239C58.7843 78.3587 62.0103 77.0799 62.9263 74.2835C63.3246 73.1919 63.6034 72.0751 63.8423 70.9451C64.1211 69.8127 64.2804 68.6599 64.3999 67.5027C64.5194 66.3411 64.599 65.1703 64.599 63.9999C64.599 62.8335 64.5592 61.6651 64.3999 60.5035C64.2804 59.3443 64.1211 58.1959 63.8423 57.0567" fill="#ffffff" fill-rule="nonzero" opacity="1" stroke="none"/>
</g>
</g>
</svg>
